<svg width="70" height="75" viewBox="0 0 70 75" fill="none" xmlns="http://www.w3.org/2000/svg">
<path d="M9.53747 7.01925C20.3276 -2.38011 36.6945 -1.25244 46.094 9.53754C54.0639 18.6867 54.464 31.8441 47.8239 41.365C48.3264 41.6906 48.7931 42.0896 49.206 42.5635L67.8141 63.9241C70.1952 66.6575 69.9102 70.8038 67.177 73.1851C64.4435 75.5663 60.2966 75.2807 57.9154 72.5473L39.3073 51.1866C38.8945 50.7126 38.5632 50.1956 38.3096 49.6533C27.9683 54.9252 14.9899 52.7253 7.01982 43.5765C-2.37982 32.7865 -1.25261 16.4189 9.53747 7.01925ZM14.1374 12.2996C6.26353 19.1588 5.44096 31.1028 12.3002 38.9766C19.1594 46.8502 31.1028 47.6722 38.9766 40.8131C46.85 33.954 47.6725 22.0112 40.8137 14.1374C33.9546 6.26369 22.0112 5.44065 14.1374 12.2996Z" fill="white"/>
</svg>
